<svg width="30" height="31" viewBox="0 0 30 31" fill="none" xmlns="http://www.w3.org/2000/svg">
<g id="logos:google-icon" clip-path="url(#clip0_5_33)">
<path id="Vector" d="M29.9857 15.6388C29.9857 14.381 29.8836 13.463 29.6627 12.5111H15.2988V18.1886H23.7301C23.5602 19.5995 22.6423 21.7244 20.6024 23.1522L20.5738 23.3423L25.1154 26.8606L25.43 26.892C28.3198 24.2232 29.9857 20.2965 29.9857 15.6388Z" fill="#4285F4"/>
<path id="Vector_2" d="M15.2988 30.5976C19.4295 30.5976 22.8971 29.2377 25.43 26.8919L20.6024 23.1521C19.3105 24.0531 17.5766 24.682 15.2988 24.682C11.2532 24.682 7.81945 22.0133 6.59543 18.3246L6.41602 18.3398L1.69359 21.9945L1.63184 22.1662C4.14762 27.1638 9.31523 30.5976 15.2988 30.5976Z" fill="#34A853"/>
<path id="Vector_3" d="M6.59543 18.3247C6.27246 17.3728 6.08555 16.3528 6.08555 15.2989C6.08555 14.2449 6.27246 13.225 6.57844 12.2731L6.56988 12.0704L1.78828 8.35693L1.63184 8.43135C0.594961 10.5052 0 12.8341 0 15.2989C0 17.7637 0.594961 20.0924 1.63184 22.1663L6.59543 18.3247Z" fill="#FBBC05"/>
<path id="Vector_4" d="M15.2988 5.91551C18.1716 5.91551 20.1094 7.15641 21.2143 8.1934L25.532 3.9777C22.8803 1.51289 19.4295 0 15.2988 0C9.31523 0 4.14762 3.43371 1.63184 8.43129L6.57844 12.273C7.81945 8.58434 11.2532 5.91551 15.2988 5.91551Z" fill="#EB4335"/>
</g>
<defs>
<clipPath id="clip0_5_33">
<rect width="30" height="30.7031" fill="white"/>
</clipPath>
</defs>
</svg>
